<mxfile host="app.diagrams.net" modified="2020-10-24T12:55:31.840Z" agent="5.0 (Macintosh; Intel Mac OS X 10_15_7) AppleWebKit/537.36 (KHTML, like Gecko) Chrome/86.0.4240.80 Safari/537.36" etag="k3r4bCvUATzN7WGSuxsQ" version="13.7.5" type="github">
  <diagram id="JkeRft6qGolwoDxWWTEW" name="Page-1">
    <mxGraphModel dx="1344" dy="843" grid="1" gridSize="10" guides="1" tooltips="1" connect="1" arrows="1" fold="1" page="1" pageScale="1" pageWidth="827" pageHeight="1169" math="0" shadow="0">
      <root>
        <mxCell id="0" />
        <mxCell id="1" parent="0" />
        <mxCell id="Ra-KWsMkVuExXTRktj2i-1" value="AudioRecordJni" style="shape=umlLifeline;perimeter=lifelinePerimeter;whiteSpace=wrap;html=1;container=1;collapsible=0;recursiveResize=0;outlineConnect=0;" vertex="1" parent="1">
          <mxGeometry x="220" y="340" width="100" height="530" as="geometry" />
        </mxCell>
        <mxCell id="Ra-KWsMkVuExXTRktj2i-6" value="" style="html=1;points=[];perimeter=orthogonalPerimeter;" vertex="1" parent="Ra-KWsMkVuExXTRktj2i-1">
          <mxGeometry x="45" y="80" width="10" height="80" as="geometry" />
        </mxCell>
        <mxCell id="Ra-KWsMkVuExXTRktj2i-7" value="DataIsRecorded（）" style="html=1;verticalAlign=bottom;startArrow=oval;endArrow=block;startSize=8;" edge="1" target="Ra-KWsMkVuExXTRktj2i-6" parent="Ra-KWsMkVuExXTRktj2i-1">
          <mxGeometry relative="1" as="geometry">
            <mxPoint x="-90" y="80" as="sourcePoint" />
          </mxGeometry>
        </mxCell>
        <mxCell id="Ra-KWsMkVuExXTRktj2i-8" value="AudioDeviceBuffer" style="shape=umlLifeline;perimeter=lifelinePerimeter;whiteSpace=wrap;html=1;container=1;collapsible=0;recursiveResize=0;outlineConnect=0;" vertex="1" parent="1">
          <mxGeometry x="430" y="340" width="100" height="300" as="geometry" />
        </mxCell>
        <mxCell id="Ra-KWsMkVuExXTRktj2i-9" value="" style="html=1;points=[];perimeter=orthogonalPerimeter;" vertex="1" parent="Ra-KWsMkVuExXTRktj2i-8">
          <mxGeometry x="45" y="80" width="10" height="80" as="geometry" />
        </mxCell>
        <mxCell id="Ra-KWsMkVuExXTRktj2i-11" value="" style="html=1;points=[];perimeter=orthogonalPerimeter;" vertex="1" parent="Ra-KWsMkVuExXTRktj2i-8">
          <mxGeometry x="45" y="200" width="10" height="80" as="geometry" />
        </mxCell>
        <mxCell id="Ra-KWsMkVuExXTRktj2i-10" value="SetRecordedBuffer（）" style="html=1;verticalAlign=bottom;startArrow=oval;endArrow=block;startSize=8;exitX=1.2;exitY=0.188;exitDx=0;exitDy=0;exitPerimeter=0;" edge="1" target="Ra-KWsMkVuExXTRktj2i-9" parent="1" source="Ra-KWsMkVuExXTRktj2i-6">
          <mxGeometry relative="1" as="geometry">
            <mxPoint x="290" y="520" as="sourcePoint" />
          </mxGeometry>
        </mxCell>
        <mxCell id="Ra-KWsMkVuExXTRktj2i-12" value="DeliverRecordedData（）" style="html=1;verticalAlign=bottom;startArrow=oval;endArrow=block;startSize=8;exitX=1.2;exitY=0.475;exitDx=0;exitDy=0;exitPerimeter=0;entryX=-0.4;entryY=0.138;entryDx=0;entryDy=0;entryPerimeter=0;" edge="1" target="Ra-KWsMkVuExXTRktj2i-11" parent="1" source="Ra-KWsMkVuExXTRktj2i-6">
          <mxGeometry relative="1" as="geometry">
            <mxPoint x="415" y="545" as="sourcePoint" />
          </mxGeometry>
        </mxCell>
        <mxCell id="Ra-KWsMkVuExXTRktj2i-13" value="AudioTransportImpl" style="shape=umlLifeline;perimeter=lifelinePerimeter;whiteSpace=wrap;html=1;container=1;collapsible=0;recursiveResize=0;outlineConnect=0;" vertex="1" parent="1">
          <mxGeometry x="620" y="340" width="110" height="560" as="geometry" />
        </mxCell>
        <mxCell id="Ra-KWsMkVuExXTRktj2i-14" value="" style="html=1;points=[];perimeter=orthogonalPerimeter;" vertex="1" parent="Ra-KWsMkVuExXTRktj2i-13">
          <mxGeometry x="50" y="200" width="10" height="80" as="geometry" />
        </mxCell>
        <mxCell id="Ra-KWsMkVuExXTRktj2i-20" value="" style="html=1;points=[];perimeter=orthogonalPerimeter;" vertex="1" parent="Ra-KWsMkVuExXTRktj2i-13">
          <mxGeometry x="50" y="430" width="10" height="40" as="geometry" />
        </mxCell>
        <mxCell id="Ra-KWsMkVuExXTRktj2i-21" value="RemixAndResample()" style="edgeStyle=orthogonalEdgeStyle;html=1;align=left;spacingLeft=2;endArrow=block;rounded=0;entryX=1;entryY=0;exitX=1;exitY=0.775;exitDx=0;exitDy=0;exitPerimeter=0;" edge="1" target="Ra-KWsMkVuExXTRktj2i-20" parent="Ra-KWsMkVuExXTRktj2i-13" source="Ra-KWsMkVuExXTRktj2i-14">
          <mxGeometry relative="1" as="geometry">
            <mxPoint x="55" y="410" as="sourcePoint" />
            <Array as="points">
              <mxPoint x="60" y="240" />
              <mxPoint x="100" y="240" />
              <mxPoint x="100" y="430" />
            </Array>
          </mxGeometry>
        </mxCell>
        <mxCell id="Ra-KWsMkVuExXTRktj2i-17" value="" style="html=1;points=[];perimeter=orthogonalPerimeter;" vertex="1" parent="Ra-KWsMkVuExXTRktj2i-13">
          <mxGeometry x="50" y="350" width="10" height="40" as="geometry" />
        </mxCell>
        <mxCell id="Ra-KWsMkVuExXTRktj2i-18" value="InitializeCaptureFrame()" style="edgeStyle=orthogonalEdgeStyle;html=1;align=left;spacingLeft=2;endArrow=block;rounded=0;entryX=1;entryY=0;exitX=0.9;exitY=0.388;exitDx=0;exitDy=0;exitPerimeter=0;" edge="1" parent="Ra-KWsMkVuExXTRktj2i-13">
          <mxGeometry relative="1" as="geometry">
            <mxPoint x="59" y="234.03999999999996" as="sourcePoint" />
            <Array as="points">
              <mxPoint x="60" y="234" />
              <mxPoint x="60" y="220" />
              <mxPoint x="80" y="220" />
              <mxPoint x="80" y="353" />
            </Array>
            <mxPoint x="60" y="353" as="targetPoint" />
          </mxGeometry>
        </mxCell>
        <mxCell id="Ra-KWsMkVuExXTRktj2i-22" value="" style="html=1;points=[];perimeter=orthogonalPerimeter;" vertex="1" parent="Ra-KWsMkVuExXTRktj2i-13">
          <mxGeometry x="50" y="520" width="10" height="40" as="geometry" />
        </mxCell>
        <mxCell id="Ra-KWsMkVuExXTRktj2i-23" value="ProcessCaptureFrame()" style="edgeStyle=orthogonalEdgeStyle;html=1;align=left;spacingLeft=2;endArrow=block;rounded=0;entryX=1;entryY=0;exitX=1;exitY=0.925;exitDx=0;exitDy=0;exitPerimeter=0;" edge="1" target="Ra-KWsMkVuExXTRktj2i-22" parent="Ra-KWsMkVuExXTRktj2i-13" source="Ra-KWsMkVuExXTRktj2i-14">
          <mxGeometry relative="1" as="geometry">
            <mxPoint x="55" y="500" as="sourcePoint" />
            <Array as="points">
              <mxPoint x="60" y="250" />
              <mxPoint x="140" y="250" />
              <mxPoint x="140" y="520" />
            </Array>
          </mxGeometry>
        </mxCell>
        <mxCell id="Ra-KWsMkVuExXTRktj2i-15" value="RecordedDataIsAvailable（）" style="html=1;verticalAlign=bottom;startArrow=oval;endArrow=block;startSize=8;exitX=0.9;exitY=0.225;exitDx=0;exitDy=0;exitPerimeter=0;" edge="1" target="Ra-KWsMkVuExXTRktj2i-14" parent="1" source="Ra-KWsMkVuExXTRktj2i-11">
          <mxGeometry relative="1" as="geometry">
            <mxPoint x="610" y="540" as="sourcePoint" />
          </mxGeometry>
        </mxCell>
        <mxCell id="Ra-KWsMkVuExXTRktj2i-16" value="&lt;div style=&quot;font-family: &amp;#34;menlo&amp;#34; , &amp;#34;monaco&amp;#34; , &amp;#34;courier new&amp;#34; , monospace ; line-height: 18px&quot;&gt;&lt;span style=&quot;background-color: rgb(255 , 255 , 255)&quot;&gt;AudioSendStream&lt;/span&gt;&lt;/div&gt;" style="shape=umlLifeline;perimeter=lifelinePerimeter;whiteSpace=wrap;html=1;container=1;collapsible=0;recursiveResize=0;outlineConnect=0;" vertex="1" parent="1">
          <mxGeometry x="1119" y="340" width="100" height="570" as="geometry" />
        </mxCell>
        <mxCell id="Ra-KWsMkVuExXTRktj2i-24" value="" style="html=1;points=[];perimeter=orthogonalPerimeter;" vertex="1" parent="Ra-KWsMkVuExXTRktj2i-16">
          <mxGeometry x="45" y="260" width="10" height="80" as="geometry" />
        </mxCell>
        <mxCell id="Ra-KWsMkVuExXTRktj2i-25" value="SendAudioData()" style="html=1;verticalAlign=bottom;startArrow=oval;endArrow=block;startSize=8;exitX=1;exitY=0.75;exitDx=0;exitDy=0;exitPerimeter=0;" edge="1" target="Ra-KWsMkVuExXTRktj2i-24" parent="1" source="Ra-KWsMkVuExXTRktj2i-14">
          <mxGeometry relative="1" as="geometry">
            <mxPoint x="945" y="600" as="sourcePoint" />
          </mxGeometry>
        </mxCell>
        <mxCell id="Ra-KWsMkVuExXTRktj2i-26" value="&lt;div style=&quot;font-family: &amp;#34;menlo&amp;#34; , &amp;#34;monaco&amp;#34; , &amp;#34;courier new&amp;#34; , monospace ; line-height: 18px&quot;&gt;&lt;div style=&quot;font-family: &amp;#34;menlo&amp;#34; , &amp;#34;monaco&amp;#34; , &amp;#34;courier new&amp;#34; , monospace ; line-height: 18px&quot;&gt;&lt;span style=&quot;background-color: rgb(255 , 255 , 255)&quot;&gt;ChannelSend&lt;/span&gt;&lt;/div&gt;&lt;/div&gt;" style="shape=umlLifeline;perimeter=lifelinePerimeter;whiteSpace=wrap;html=1;container=1;collapsible=0;recursiveResize=0;outlineConnect=0;" vertex="1" parent="1">
          <mxGeometry x="1379" y="340" width="100" height="640" as="geometry" />
        </mxCell>
        <mxCell id="Ra-KWsMkVuExXTRktj2i-27" value="" style="html=1;points=[];perimeter=orthogonalPerimeter;" vertex="1" parent="Ra-KWsMkVuExXTRktj2i-26">
          <mxGeometry x="45" y="260" width="10" height="80" as="geometry" />
        </mxCell>
        <mxCell id="Ra-KWsMkVuExXTRktj2i-28" value="&lt;span style=&quot;font-family: &amp;#34;menlo&amp;#34; , &amp;#34;monaco&amp;#34; , &amp;#34;courier new&amp;#34; , monospace ; font-size: 12px&quot;&gt;ProcessAndEncodeAudio()&lt;/span&gt;" style="html=1;verticalAlign=bottom;startArrow=oval;endArrow=block;startSize=8;" edge="1" target="Ra-KWsMkVuExXTRktj2i-27" parent="1">
          <mxGeometry relative="1" as="geometry">
            <mxPoint x="1179" y="625" as="sourcePoint" />
          </mxGeometry>
        </mxCell>
        <mxCell id="Ra-KWsMkVuExXTRktj2i-29" value="&lt;div style=&quot;font-family: &amp;#34;menlo&amp;#34; , &amp;#34;monaco&amp;#34; , &amp;#34;courier new&amp;#34; , monospace ; line-height: 18px&quot;&gt;&lt;span style=&quot;background-color: rgb(255 , 255 , 255)&quot;&gt;AudioProcessingImpl&lt;/span&gt;&lt;/div&gt;" style="shape=umlLifeline;perimeter=lifelinePerimeter;whiteSpace=wrap;html=1;container=1;collapsible=0;recursiveResize=0;outlineConnect=0;" vertex="1" parent="1">
          <mxGeometry x="870" y="340" width="130" height="770" as="geometry" />
        </mxCell>
        <mxCell id="Ra-KWsMkVuExXTRktj2i-30" value="" style="html=1;points=[];perimeter=orthogonalPerimeter;" vertex="1" parent="Ra-KWsMkVuExXTRktj2i-29">
          <mxGeometry x="60" y="530" width="10" height="80" as="geometry" />
        </mxCell>
        <mxCell id="Ra-KWsMkVuExXTRktj2i-31" value="ProcessStream()" style="html=1;verticalAlign=bottom;startArrow=oval;endArrow=block;startSize=8;entryX=0;entryY=0.05;entryDx=0;entryDy=0;entryPerimeter=0;" edge="1" target="Ra-KWsMkVuExXTRktj2i-30" parent="1">
          <mxGeometry relative="1" as="geometry">
            <mxPoint x="680" y="874" as="sourcePoint" />
          </mxGeometry>
        </mxCell>
        <mxCell id="Ra-KWsMkVuExXTRktj2i-32" value="" style="html=1;points=[];perimeter=orthogonalPerimeter;" vertex="1" parent="1">
          <mxGeometry x="930" y="1010" width="10" height="40" as="geometry" />
        </mxCell>
        <mxCell id="Ra-KWsMkVuExXTRktj2i-33" value="ProcessCaptureStreamLocked()" style="edgeStyle=orthogonalEdgeStyle;html=1;align=left;spacingLeft=2;endArrow=block;rounded=0;entryX=1;entryY=0;exitX=1.1;exitY=0.263;exitDx=0;exitDy=0;exitPerimeter=0;" edge="1" target="Ra-KWsMkVuExXTRktj2i-32" parent="1" source="Ra-KWsMkVuExXTRktj2i-30">
          <mxGeometry relative="1" as="geometry">
            <mxPoint x="935" y="990" as="sourcePoint" />
            <Array as="points">
              <mxPoint x="960" y="891" />
              <mxPoint x="960" y="1010" />
            </Array>
          </mxGeometry>
        </mxCell>
        <mxCell id="Ra-KWsMkVuExXTRktj2i-35" style="edgeStyle=orthogonalEdgeStyle;rounded=0;orthogonalLoop=1;jettySize=auto;html=1;" edge="1" parent="1" source="Ra-KWsMkVuExXTRktj2i-34">
          <mxGeometry relative="1" as="geometry">
            <mxPoint x="340" y="100" as="targetPoint" />
          </mxGeometry>
        </mxCell>
        <mxCell id="Ra-KWsMkVuExXTRktj2i-34" value="Record" style="strokeWidth=2;html=1;shape=mxgraph.flowchart.terminator;whiteSpace=wrap;" vertex="1" parent="1">
          <mxGeometry x="160" y="70" width="100" height="60" as="geometry" />
        </mxCell>
        <mxCell id="Ra-KWsMkVuExXTRktj2i-38" value="" style="edgeStyle=orthogonalEdgeStyle;rounded=0;orthogonalLoop=1;jettySize=auto;html=1;" edge="1" parent="1" source="Ra-KWsMkVuExXTRktj2i-36" target="Ra-KWsMkVuExXTRktj2i-37">
          <mxGeometry relative="1" as="geometry" />
        </mxCell>
        <mxCell id="Ra-KWsMkVuExXTRktj2i-36" value="AP&lt;br&gt;(Near end)" style="strokeWidth=2;html=1;shape=mxgraph.flowchart.terminator;whiteSpace=wrap;" vertex="1" parent="1">
          <mxGeometry x="340" y="70" width="110" height="60" as="geometry" />
        </mxCell>
        <mxCell id="Ra-KWsMkVuExXTRktj2i-40" value="" style="edgeStyle=orthogonalEdgeStyle;rounded=0;orthogonalLoop=1;jettySize=auto;html=1;" edge="1" parent="1" source="Ra-KWsMkVuExXTRktj2i-37" target="Ra-KWsMkVuExXTRktj2i-39">
          <mxGeometry relative="1" as="geometry" />
        </mxCell>
        <mxCell id="Ra-KWsMkVuExXTRktj2i-37" value="Mix" style="strokeWidth=2;html=1;shape=mxgraph.flowchart.terminator;whiteSpace=wrap;" vertex="1" parent="1">
          <mxGeometry x="530" y="70" width="110" height="60" as="geometry" />
        </mxCell>
        <mxCell id="Ra-KWsMkVuExXTRktj2i-42" value="" style="edgeStyle=orthogonalEdgeStyle;rounded=0;orthogonalLoop=1;jettySize=auto;html=1;" edge="1" parent="1" source="Ra-KWsMkVuExXTRktj2i-39" target="Ra-KWsMkVuExXTRktj2i-41">
          <mxGeometry relative="1" as="geometry" />
        </mxCell>
        <mxCell id="Ra-KWsMkVuExXTRktj2i-39" value="Encode" style="strokeWidth=2;html=1;shape=mxgraph.flowchart.terminator;whiteSpace=wrap;" vertex="1" parent="1">
          <mxGeometry x="720" y="70" width="110" height="60" as="geometry" />
        </mxCell>
        <mxCell id="Ra-KWsMkVuExXTRktj2i-44" value="" style="edgeStyle=orthogonalEdgeStyle;rounded=0;orthogonalLoop=1;jettySize=auto;html=1;" edge="1" parent="1" source="Ra-KWsMkVuExXTRktj2i-41" target="Ra-KWsMkVuExXTRktj2i-43">
          <mxGeometry relative="1" as="geometry" />
        </mxCell>
        <mxCell id="Ra-KWsMkVuExXTRktj2i-41" value="PacedSend" style="strokeWidth=2;html=1;shape=mxgraph.flowchart.terminator;whiteSpace=wrap;" vertex="1" parent="1">
          <mxGeometry x="910" y="70" width="110" height="60" as="geometry" />
        </mxCell>
        <mxCell id="Ra-KWsMkVuExXTRktj2i-46" value="" style="edgeStyle=orthogonalEdgeStyle;rounded=0;orthogonalLoop=1;jettySize=auto;html=1;dashed=1;" edge="1" parent="1" source="Ra-KWsMkVuExXTRktj2i-43" target="Ra-KWsMkVuExXTRktj2i-45">
          <mxGeometry relative="1" as="geometry" />
        </mxCell>
        <mxCell id="Ra-KWsMkVuExXTRktj2i-43" value="Send" style="strokeWidth=2;html=1;shape=mxgraph.flowchart.terminator;whiteSpace=wrap;" vertex="1" parent="1">
          <mxGeometry x="1100" y="70" width="110" height="60" as="geometry" />
        </mxCell>
        <mxCell id="Ra-KWsMkVuExXTRktj2i-49" value="" style="edgeStyle=orthogonalEdgeStyle;rounded=0;orthogonalLoop=1;jettySize=auto;html=1;" edge="1" parent="1" source="Ra-KWsMkVuExXTRktj2i-45" target="Ra-KWsMkVuExXTRktj2i-48">
          <mxGeometry relative="1" as="geometry" />
        </mxCell>
        <mxCell id="Ra-KWsMkVuExXTRktj2i-45" value="Receive" style="strokeWidth=2;html=1;shape=mxgraph.flowchart.terminator;whiteSpace=wrap;" vertex="1" parent="1">
          <mxGeometry x="1100" y="210" width="110" height="60" as="geometry" />
        </mxCell>
        <mxCell id="Ra-KWsMkVuExXTRktj2i-51" value="" style="edgeStyle=orthogonalEdgeStyle;rounded=0;orthogonalLoop=1;jettySize=auto;html=1;" edge="1" parent="1" source="Ra-KWsMkVuExXTRktj2i-48" target="Ra-KWsMkVuExXTRktj2i-50">
          <mxGeometry relative="1" as="geometry" />
        </mxCell>
        <mxCell id="Ra-KWsMkVuExXTRktj2i-48" value="NetEq" style="strokeWidth=2;html=1;shape=mxgraph.flowchart.terminator;whiteSpace=wrap;" vertex="1" parent="1">
          <mxGeometry x="910" y="210" width="110" height="60" as="geometry" />
        </mxCell>
        <mxCell id="Ra-KWsMkVuExXTRktj2i-53" value="" style="edgeStyle=orthogonalEdgeStyle;rounded=0;orthogonalLoop=1;jettySize=auto;html=1;" edge="1" parent="1" source="Ra-KWsMkVuExXTRktj2i-50" target="Ra-KWsMkVuExXTRktj2i-52">
          <mxGeometry relative="1" as="geometry" />
        </mxCell>
        <mxCell id="Ra-KWsMkVuExXTRktj2i-50" value="Decode" style="strokeWidth=2;html=1;shape=mxgraph.flowchart.terminator;whiteSpace=wrap;" vertex="1" parent="1">
          <mxGeometry x="720" y="210" width="110" height="60" as="geometry" />
        </mxCell>
        <mxCell id="Ra-KWsMkVuExXTRktj2i-55" value="" style="edgeStyle=orthogonalEdgeStyle;rounded=0;orthogonalLoop=1;jettySize=auto;html=1;" edge="1" parent="1" source="Ra-KWsMkVuExXTRktj2i-52" target="Ra-KWsMkVuExXTRktj2i-54">
          <mxGeometry relative="1" as="geometry" />
        </mxCell>
        <mxCell id="Ra-KWsMkVuExXTRktj2i-52" value="Mix" style="strokeWidth=2;html=1;shape=mxgraph.flowchart.terminator;whiteSpace=wrap;" vertex="1" parent="1">
          <mxGeometry x="530" y="210" width="110" height="60" as="geometry" />
        </mxCell>
        <mxCell id="Ra-KWsMkVuExXTRktj2i-57" value="" style="edgeStyle=orthogonalEdgeStyle;rounded=0;orthogonalLoop=1;jettySize=auto;html=1;" edge="1" parent="1" source="Ra-KWsMkVuExXTRktj2i-54" target="Ra-KWsMkVuExXTRktj2i-56">
          <mxGeometry relative="1" as="geometry" />
        </mxCell>
        <mxCell id="Ra-KWsMkVuExXTRktj2i-54" value="AP&lt;br&gt;(Far end)" style="strokeWidth=2;html=1;shape=mxgraph.flowchart.terminator;whiteSpace=wrap;" vertex="1" parent="1">
          <mxGeometry x="340" y="210" width="110" height="60" as="geometry" />
        </mxCell>
        <mxCell id="Ra-KWsMkVuExXTRktj2i-56" value="Playout" style="strokeWidth=2;html=1;shape=mxgraph.flowchart.terminator;whiteSpace=wrap;" vertex="1" parent="1">
          <mxGeometry x="150" y="210" width="110" height="60" as="geometry" />
        </mxCell>
      </root>
    </mxGraphModel>
  </diagram>
</mxfile>
